<?xml version="1.0" encoding="utf-8"?><svg xmlns="http://www.w3.org/2000/svg" xmlns:xlink="http://www.w3.org/1999/xlink"><symbol fill="none" viewBox="0 0 94 94" id="arrows" xmlns="http://www.w3.org/2000/svg"><g filter="url(#aa)"><path fill="#69B9FF" d="M0 0h94v94H0z"/><path stroke="#fff" stroke-width="10" d="M5 5h84v84H5z"/><path fill-rule="evenodd" clip-rule="evenodd" d="M40.733 15.667c-1.88 0-3.133 1.253-3.133 3.133v14.413l-19.74-19.74c-1.253-1.253-3.133-1.253-4.387 0-1.253 1.254-1.253 3.134 0 4.387l19.74 19.74H18.8c-1.88 0-3.133 1.253-3.133 3.133 0 1.88 1.253 3.134 3.133 3.134h21.933c1.88 0 3.134-1.567 3.134-3.134V18.8c0-1.88-1.567-3.133-3.134-3.133ZM80.527 76.14 60.787 56.4H75.2c1.88 0 3.133-1.253 3.133-3.133 0-1.88-1.253-3.134-3.133-3.134H53.267c-1.88 0-3.134 1.567-3.134 3.134V75.2c0 1.88 1.254 3.133 3.134 3.133S56.4 77.08 56.4 75.2V60.787l19.74 19.74c1.253 1.253 3.133 1.253 4.387 0 1.253-1.254 1.253-3.134 0-4.387Z" fill="#fff"/></g><defs><filter id="aa" x="0" y="0" width="94" height="94" filterUnits="userSpaceOnUse" color-interpolation-filters="sRGB"><feFlood flood-opacity="0" result="BackgroundImageFix"/><feColorMatrix in="SourceAlpha" values="0 0 0 0 0 0 0 0 0 0 0 0 0 0 0 0 0 0 127 0" result="hardAlpha"/><feOffset/><feColorMatrix values="0 0 0 0 0.180392 0 0 0 0 0.615686 0 0 0 0 1 0 0 0 1 0"/><feBlend in2="BackgroundImageFix" result="effect1_dropShadow_2_41"/><feBlend in="SourceGraphic" in2="effect1_dropShadow_2_41" result="shape"/></filter></defs></symbol><symbol fill="none" viewBox="0 0 94 94" id="drawer" xmlns="http://www.w3.org/2000/svg"><g filter="url(#ba)"><path fill="#69B9FF" d="M0 0h94v94H0z"/><path stroke="#fff" stroke-width="10" d="M5 5h84v84H5z"/><path fill-rule="evenodd" clip-rule="evenodd" d="M65.8 18.8H28.2L9.4 37.6v28.2c0 5.327 4.387 9.4 9.4 9.4h56.4c5.327 0 9.4-4.073 9.4-9.4V37.6L65.8 18.8Zm-35.093 6.267h32.586L75.827 37.6H59.533c0 6.267-5.64 12.533-12.533 12.533S34.467 43.867 34.467 37.6H18.173l12.534-12.533ZM78.333 65.8c0 1.88-1.253 3.133-3.133 3.133H18.8c-1.88 0-3.133-1.566-3.133-3.133V43.867H29.14C31.96 51.073 39.167 56.4 47 56.4s15.04-5.327 17.547-12.533h13.786V65.8Z" fill="#fff"/></g><defs><filter id="ba" x="0" y="0" width="94" height="94" filterUnits="userSpaceOnUse" color-interpolation-filters="sRGB"><feFlood flood-opacity="0" result="BackgroundImageFix"/><feColorMatrix in="SourceAlpha" values="0 0 0 0 0 0 0 0 0 0 0 0 0 0 0 0 0 0 127 0" result="hardAlpha"/><feOffset/><feColorMatrix values="0 0 0 0 0.180392 0 0 0 0 0.615686 0 0 0 0 1 0 0 0 1 0"/><feBlend in2="BackgroundImageFix" result="effect1_dropShadow_2_50"/><feBlend in="SourceGraphic" in2="effect1_dropShadow_2_50" result="shape"/></filter></defs></symbol><symbol fill="none" viewBox="0 0 19 19" id="facebook" xmlns="http://www.w3.org/2000/svg"><path d="M16.333.667h-14c-1.133 0-2 .866-2 2v14c0 1.133.867 2 2 2h7v-7h-2V9.2h2V7.133c0-2.133 1.2-3.666 3.734-3.666h1.8v2.6h-1.2c-1 0-1.4.733-1.4 1.466V9.2h2.6l-.534 2.467h-2v7h4c1.134 0 2-.867 2-2v-14c0-1.134-.866-2-2-2Z" fill="#000"/></symbol><symbol fill="none" viewBox="0 0 19 18" id="google" xmlns="http://www.w3.org/2000/svg"><path d="M1.267 4.733c0 1.467.466 2.6 1.466 3.2.8.534 1.734.6 2.2.6H5.2s-.133 1 .6 2h-.067c-1.266 0-5.466.267-5.466 3.734 0 3.533 3.866 3.666 4.666 3.666h.2c.467 0 1.8-.066 3-.666 1.534-.734 2.334-2.067 2.334-3.867 0-1.733-1.2-2.8-2.067-3.6-.533-.467-1-.867-1-1.267 0-.4.333-.733.733-1.066C8.8 6.867 9.467 6 9.467 4.333c0-1.466-.2-2.466-1.334-3.066.2-.067.667-.134.867-.134.6-.066 1.533-.2 1.533-.666V.333h-4.6c-.066 0-4.666.2-4.666 4.4Zm7.466 9c.067 1.4-1.133 2.467-2.933 2.6-1.867.134-3.333-.666-3.4-2.066-.067-.667.267-1.334.867-1.867.6-.533 1.4-.867 2.266-.933h.334c1.6-.067 2.733.933 2.866 2.266Zm-1.2-10C8 5.333 7.333 7 6.2 7.267c-.133.066-.267.066-.4.066-1 0-2-1-2.333-2.4-.2-.733-.2-1.4.066-2.066.2-.667.667-1.067 1.134-1.2.133-.067.266-.067.4-.067 1.2 0 1.933.467 2.466 2.133Zm7.734 3.4v-3h-2v3h-3v2h3v3h2v-3h3v-2h-3Z" fill="#000"/></symbol><symbol fill="none" viewBox="0 0 16 20" id="pint" xmlns="http://www.w3.org/2000/svg"><path d="M15.267 5.8C14.733 2.067 11 .2 7.067.667 3.933 1 .8 3.533.667 7.133.6 9.333 1.2 11 3.333 11.467c.934-1.6-.266-1.934-.466-3.134-.8-4.8 5.533-8 8.8-4.666 2.266 2.333.8 9.4-2.867 8.666C5.267 11.6 10.533 6 7.733 4.867c-2.266-.934-3.466 2.733-2.4 4.6-.666 3.133-2 6.066-1.466 10 1.8-1.334 2.4-3.8 2.866-6.4.867.533 1.4 1.133 2.534 1.2 4.2.333 6.533-4.267 6-8.467Z" fill="#000"/></symbol><symbol fill="none" viewBox="0 0 20 16" id="twitter" xmlns="http://www.w3.org/2000/svg"><path d="M17.467 4.4v.467c0 5-3.8 10.733-10.734 10.733-2.133 0-4.133-.6-5.8-1.667.267 0 .6.067.934.067 1.8 0 3.4-.6 4.666-1.6-1.666 0-3.066-1.133-3.533-2.6.2.067.467.067.733.067.334 0 .667-.067 1-.134C3 9.333 1.667 7.8 1.667 6v-.067C2.2 6.2 2.733 6.4 3.4 6.4c-1-.667-1.667-1.8-1.667-3.133 0-.667.2-1.334.534-1.867 1.866 2.267 4.666 3.8 7.8 3.933C10 5.067 10 4.8 10 4.467c0-2.067 1.667-3.8 3.8-3.8 1.067 0 2.067.466 2.733 1.2.867-.2 1.667-.467 2.4-.934A3.651 3.651 0 0 1 17.267 3c.666-.067 1.4-.267 2.066-.533-.533.733-1.133 1.4-1.866 1.933Z" fill="#000"/></symbol><symbol fill="none" viewBox="0 0 94 94" id="watches" xmlns="http://www.w3.org/2000/svg"><g filter="url(#ga)"><path fill="#69B9FF" d="M0 0h94v94H0z"/><path stroke="#fff" stroke-width="10" d="M5 5h84v84H5z"/><path fill-rule="evenodd" clip-rule="evenodd" d="M65.8 26.007V18.8c0-5.327-4.073-9.4-9.4-9.4H37.6c-5.327 0-9.4 4.073-9.4 9.4v7.207A28.11 28.11 0 0 0 18.8 47c0 8.46 3.76 15.98 9.4 20.993V75.2c0 5.327 4.073 9.4 9.4 9.4h18.8c5.327 0 9.4-4.073 9.4-9.4v-7.207A28.111 28.111 0 0 0 75.2 47c0-8.46-3.76-15.98-9.4-20.993ZM34.467 18.8c0-1.88 1.253-3.133 3.133-3.133h18.8c1.88 0 3.133 1.253 3.133 3.133v2.82C55.773 19.74 51.387 18.8 47 18.8c-4.387 0-8.773.94-12.533 2.82V18.8Zm25.066 56.4c0 1.88-1.253 3.133-3.133 3.133H37.6c-1.88 0-3.133-1.253-3.133-3.133v-2.82c3.76 1.88 8.146 2.82 12.533 2.82 4.387 0 8.773-.94 12.533-2.82v2.82ZM47 68.933c-12.22 0-21.933-9.713-21.933-21.933S34.78 25.067 47 25.067 68.933 34.78 68.933 47 59.22 68.933 47 68.933Zm3.133-23.186v-11.28c0-1.88-1.253-3.134-3.133-3.134-1.88 0-3.133 1.254-3.133 3.134V47c0 .94.313 1.567.94 2.193l6.266 6.267c.627.627 1.567.94 2.194.94.626 0 1.566-.313 2.193-.94 1.253-1.253 1.253-3.133 0-4.387l-5.327-5.326Z" fill="#fff"/></g><defs><filter id="ga" x="0" y="0" width="94" height="94" filterUnits="userSpaceOnUse" color-interpolation-filters="sRGB"><feFlood flood-opacity="0" result="BackgroundImageFix"/><feColorMatrix in="SourceAlpha" values="0 0 0 0 0 0 0 0 0 0 0 0 0 0 0 0 0 0 127 0" result="hardAlpha"/><feOffset/><feColorMatrix values="0 0 0 0 0.180392 0 0 0 0 0.615686 0 0 0 0 1 0 0 0 1 0"/><feBlend in2="BackgroundImageFix" result="effect1_dropShadow_2_30"/><feBlend in="SourceGraphic" in2="effect1_dropShadow_2_30" result="shape"/></filter></defs></symbol><symbol fill="none" viewBox="0 0 19 14" id="webflow" xmlns="http://www.w3.org/2000/svg"><path d="M13.6 4.6s-1.467 4.667-1.6 5c-.067-.4-1.133-8.733-1.133-8.733-2.534 0-3.867 1.8-4.6 3.666 0 0-1.8 4.667-1.934 5.067 0-.333-.266-5-.266-5C3.933 2.267 1.8.867.067.867l2.066 12.6c2.667 0 4.067-1.8 4.8-3.667 0 0 1.6-4.133 1.667-4.267 0 .2 1.133 8 1.133 8 2.667 0 4.067-1.666 4.867-3.533L18.333.867c-2.6 0-4 1.8-4.733 3.733Z" fill="#000"/></symbol></svg>